<?xml version="1.0" encoding="UTF-8"?>
<svg id="Layer_2" data-name="Layer 2" xmlns="http://www.w3.org/2000/svg" xmlns:xlink="http://www.w3.org/1999/xlink" viewBox="0 0 777.75 228.43">
  <defs>
    <style>
      .cls-1 {
        fill: #ec2633;
      }

      .cls-2 {
        fill: url(#linear-gradient);
        stroke: url(#linear-gradient-2);
        stroke-miterlimit: 10;
        stroke-width: 2px;
      }

      .cls-3 {
        fill: #bfc0c3;
      }

      .cls-4 {
        fill: #231f20;
      }
    </style>
    <linearGradient id="linear-gradient" x1="377.6" y1="91.18" x2="391.79" y2="192.15" gradientTransform="translate(-4.75 -63.98) rotate(9.54) scale(1.03 .97) skewX(9.01)" gradientUnits="userSpaceOnUse">
      <stop offset="0" stop-color="#f0f0f0"/>
      <stop offset=".18" stop-color="#e8e8e8"/>
      <stop offset=".46" stop-color="#d2d2d2"/>
      <stop offset=".8" stop-color="#aeaeae"/>
      <stop offset="1" stop-color="#969696"/>
    </linearGradient>
    <linearGradient id="linear-gradient-2" x1="387.13" y1="98.59" x2="387.13" y2="183.73" gradientUnits="userSpaceOnUse">
      <stop offset="0" stop-color="#dedede"/>
      <stop offset=".06" stop-color="#bfbfbf"/>
      <stop offset=".2" stop-color="#717171"/>
      <stop offset=".32" stop-color="#2e2e2e"/>
      <stop offset=".64" stop-color="#ededed"/>
      <stop offset=".67" stop-color="#c4c4c4"/>
      <stop offset=".7" stop-color="#979797"/>
      <stop offset=".73" stop-color="#6e6e6e"/>
      <stop offset=".76" stop-color="#4c4c4c"/>
      <stop offset=".8" stop-color="#303030"/>
      <stop offset=".84" stop-color="#1a1a1a"/>
      <stop offset=".88" stop-color="#0b0b0b"/>
      <stop offset=".93" stop-color="#020202"/>
      <stop offset="1" stop-color="#000"/>
    </linearGradient>
  </defs>
  <g id="LOGO_NORMAL" data-name="LOGO NORMAL">
    <path id="RED_STROKE" data-name="RED STROKE" class="cls-1" d="m211.15,86.97l-4.07-66.52,4.52-.1-.44,66.62Zm472.16,70.65l.04,36.73h-110.68l-.06-21.38-6.72,6.67-4.98-5.51-2.94-2.71.06,22.94h-61.79l-4.55-16.29h-6.74l-4.49,16.29h-79.11c-6.03-.94-11.11-3.12-15.12-6.53-4.16,3.82-9.81,6.1-16.63,6.52h-.12s-79.69,0-79.69,0h-8.92s-6.33-10.88-6.33-10.88l.03,10.88h-64.32s-4.55-16.3-4.55-16.3h-6.62s-4.51,16.3-4.51,16.3h-33.96s0-.04,0-.04l-66.09.04-.1-37.76-93.14-1.77,93.14.06v-2.44c0-.88-.02-1.76-.01-2.64v-.31S.9,147.36.9,147.36l93.49-.76v-5.4S.46,138.56.46,138.56l93.9-1.84v-5.4s-94.36-1.96-94.36-1.96l94.34-.31-.1-38.41h45.82l.09,6.98.18,32.39h.03s.06,15.86.06,15.86l-.02.11.02,7.64h16.85l18.11-62.98h22.8v-.34L200.42,0l3.93,90.6h0v.05h21.99l1.95,6.63-.02-6.63h39.89l7.16,12.34v-12.34h91.55c6.26.59,11.89,3,16.42,6.99,3.85-3.97,9.22-6.39,15.86-6.99h152.32l12.54,20.69,12.13-20.69h107.09l.04,35.76,93.55,2.01-93.54-.07v2.69s-10.28,0-10.28,0v2.14s104.09,3.7,104.09,3.7l-104.08-.36.02,5.81,104.38,4.52-104.37.5v4.61c1.19.03,7.77,0,8.42.04h1.83s0,3.06,0,3.06l94.44,2.21-94.44.35Zm-456.21-1.99l-.1-.36h-.32c.14.12.28.24.42.36Zm135.83-37.34s-.03,0-.04,0c.01.02.03.03.04.05,0-.02,0-.03,0-.05Zm144.01,16.66l-.31-1.07c.03.36.05.71.06,1.07h.25Z"/>
    <path id="SHADOW" class="cls-4" d="m312.18,101.45l.22,82.93h-27.03s-20.09-34.52-20.09-34.52l.09,34.51h-18.2s-9.56-35.38-9.56-35.38l-.16-50.43h26.15s20.86,35.96,20.86,35.96v-35.95s26.82,0,26.82,0h.85l.04,2.88Zm-181.16.22v-3.09s-.79,0-.79,0h-26.81s.14,51.77.14,51.77v1.26s27.63-18.85,27.63-18.85l-.17-31.08Zm61.79,66.41h20.1s4.4,16.3,4.4,16.3h27.42s-11.2-38.99-11.2-38.99h-34.55s-5.34,19.67-5.34,19.67m-31.39,0l-5.78,19.29-52.82.03-.08-30.55,27.63-18.85.04,7.68s-.01.01-.02.03l.05,18.94h30.1s1.78.01,1.78.01c.15.16-.72,2.77-.92,3.43Zm-37.89-24.78s-.05.02-.07.03c-.06.06-.02.03.07-.03Zm80.93,2.64h27.69s-13.08-44.34-13.08-44.34h-36.83s-24.8,85.8-24.8,85.8h.77s28.13,0,28.13,0l14.58-52.73,3.54,11.26Zm179.82,23.15c-.62,11.55-7.3,17.7-17.64,18.33h-51.76s-.23-85.82-.23-85.82h52.08c10.98,1.02,16.72,9.71,17.43,21.2.92,15.06-.6,31.12.12,46.28Zm-27.71-4.45l-.1-37.27c0-1.26-1.6-3-2.75-3h-11.32s.11,40.27.11,40.27h14.06Zm251.94-14.32l.06-.04-.12-45.79v-2.88s-.89,0-.89,0h-26.15s-17.28,29.48-17.28,29.48l-17.87-29.48h-26.15s.13,42.93.13,42.93l12.5,42.87h15.29s-.1-36.67-.1-36.67l13.78,18.16,2.77,3.69,16.41-21.6.1,36.43h27.69s-.1-37.02-.1-37.02l-.06-.08Zm30.76-25.93l34.28-.24-.05-19.41-.03-3.13h-.85s-61.09,0-61.09,0l.04,46.63,27.72-18.38v-5.48Zm34.4,43.38c0-.79.04-2.99-.03-3.03-.17-.1-.65-.05-1.18-.08h-33.07s-.03-9.59-.03-9.59h23.73s0-.36,0-.36l-.05-19.17v-3.24s-1.11,0-1.11,0h-21.2s-29.07,19.32-29.07,19.32v.11s0-.11,0-.11h0s.01,35.81.01,35.81h62.05s-.05-19.65-.05-19.65Zm-218.94-29.49l-14.13,49.23-36.94.38c-10.86-.64-18.78-7.73-18.74-18.09.08-16.51.96-34.04.19-50.63.56-10.78,7.35-15.84,16.46-16.86l62.06-.71,1.83.03-.95,3.21-5.58,18.31-43.04.03c-1.34.24-2.46.51-3.01,1.98-.07.18-.39,1.41-.39,1.49l.07,27.6,6.42-18.59,34.84-.5,1.81.03-.92,3.09Zm-26.08,24.33v-5.62s-16.06-.54-16.06-.54l.02,8.76c1.72.59,2.78.62,3.72.71,2.05.21,8.96.7,10.63.06.99-.38,2.2-1.99,1.68-3.38Zm61.94-17.65l26.96.08-12.6-43.43h-37.14s-23.74,82.77-23.74,82.77l-.87,3.03h29.01s15.16-53.19,15.16-53.19l3.21,10.73Zm-6.51,3.58l-5.2,18.77c-.35,1.39-.71,2.42-1.01,3.76l19.58.04,4.55,16.3h27.8s-11.2-38.99-11.2-38.99l-34.52.11Z"/>
    <path id="TEXT" class="cls-2" d="m360.55,99.6h-44.12s.22,82.78.22,82.78h44.12c12.94,0,19.77-7.06,19.74-20.38l-.11-42.03c-.04-13.31-6.91-20.38-19.85-20.38Zm-2.16,63.1h-19.67s-.12-43.42-.12-43.42h15.25c3.32,0,4.42,1.16,4.43,4.52l.1,38.9Zm-72.87-63.1h22.11s.22,82.78.22,82.78h-21.34s-25.77-44.23-25.77-44.23l.12,44.23h-13.17s-9.03-33.54-9.03-33.54l-.13-49.24h21.34s25.77,44.23,25.77,44.23l-.12-44.23Zm-47.99,72.71l2.71,10.07h-22.42s-4.46-16.33-4.46-16.33h-19.01s5.38-19.65,5.38-19.65h30.18s7.61,25.9,7.61,25.9Zm-110.89-9.6h31.06s-5.66,19.68-5.66,19.68h-47.45s-.08-28.29-.08-28.29l22.07-14.92.06,23.53Zm456.76-63.1h21.34s.22,82.78.22,82.78h-22.11s-.12-44.23-.12-44.23l-19.22,25.82-19.36-25.82.12,44.22h-10.2s-12.02-41.15-12.02-41.15l-.11-41.63h21.34s20.21,33.46,20.21,33.46l19.92-33.46Zm86.25,0l.05,19.68h-34.27s.02,8.18.02,8.18l-22.07,14.92-.11-42.79h56.38Zm-218.64,33.68l-14.18,49.18c-1.3.16-2.66.25-4.12.25h-26.13c-12.94,0-19.78-6.26-19.81-19.57l-.12-44.35c-.04-13.31,6.6-19.21,19.54-19.21h54.54s-5.34,18.53-5.34,18.53h-42.2c-3.32,0-4.42,1.15-4.42,4.51l.1,36.7c0,3.36,1.12,4.52,4.44,4.52h12.72c3.31,0,4.42-1.16,4.41-4.52l-.02-6.37-16.65-.56,6.27-19.11h30.99Zm-346.51,15.19l-.13-48.88h22.11s.09,33.7.09,33.7l-22.07,15.18Zm565.32,14.22l.05,19.68h-56.38s-.09-33.43-.09-33.43l27.94-18.67h17.81s.05,19.68.05,19.68h-23.69s.03,12.74.03,12.74h34.27Zm-469.79-43.08l-12.98,46.42-.71,2.56-3.78,13.77h-22.67s23.88-82.78,23.88-82.78h32.4s12.16,41.39,12.16,41.39h-22.02s-6.28-21.36-6.28-21.36Zm323.33,52.69l2.71,10.07h-22.42s-4.46-16.33-4.46-16.33h-19.01s5.38-19.65,5.38-19.65h30.18s7.61,25.9,7.61,25.9Zm-37.51-52.68l-12.98,46.42-.71,2.56-3.78,13.77h-22.67s23.88-82.78,23.88-82.78h32.4s12.16,41.39,12.16,41.39h-22.02s-6.28-21.36-6.28-21.36Z"/>
    <path id="Where_The_Game_Becomes_Reality" data-name="Where The Game Becomes Reality" class="cls-3" d="m94.58,205.3l4.91.04c.99,1.67,2.63,15.18,3.41,15.32.27.05.92.15.89-.24l3.34-14.8c.42-.67,3.18-.22,4.08-.32l3.21,15.11c-.08.39.69.3.88.24.76-.25,2.9-13.51,3.36-15.37h4.96l-6,22.54c-.86.18-4.08.43-4.47-.18-1.4-4.45-1.75-10.23-3.35-14.5-.18-.49-.21-.86-.88-.88-.82-.02-3.2,14.27-3.73,15.7l-4.61-.14-6-21.84v-.7Zm202.89,23.04c1.14-.15,3.18-1,4.26-1.56,4.1-2.15,6.34-6.86,6.01-11.35h-13.1v3.84h7.44c-1.18,5.66-8.95,6.55-12.19,2.07-4.95-6.84,2.77-16.04,9.54-11.15.39.28,1.64,1.74,1.77,1.74h5.49c-2.85-7.4-12.78-9.35-18.94-4.53-8.12,6.34-3.92,19.6,6.19,20.94.81.11,2.73.11,3.54,0Zm183.43-7.84c3.32-9.94-6.14-18.46-15.94-15.02-8.81,3.08-10.13,15.5-2.6,20.71,1.61,1.11,3.32,1.42,5.07,2.16h3.89c4.31-1.19,8.11-3.44,9.58-7.84Zm-11.19,3.66c-9.25.24-9.77-14.93-.6-15.29,9.6-.37,9.81,15.05.6,15.29Zm-25.3,4.18c4.5-1.13,8.26-3.82,9.56-8.38h-5.13c-.23,0-2.06,2.72-3.03,3.29-3.08,1.81-6.78.66-8.83-2.07-4.23-5.65.98-14.5,8.04-11.77,1.71.66,3.55,3.57,3.82,3.57h5.13c-3.34-10.5-18.5-11.3-22.62-.83-2.76,7.03,1.84,15.17,9.51,16.19,1.09.14,2.41-.1,3.54,0Zm96.66,0l2.02-.62c3.43-1.22,4.53-4.47,3.91-7.85-.8-4.36-9.16-5.45-9.95-7.32-.9-2.13.07-3.81,2.42-3.79,2.55.02,2.12,2.13,2.3,2.13h5.31c-.63-5.48-6.57-7.39-11.33-5.41s-5.41,8.19-.82,10.94c1.72,1.03,6.7,2.33,7.12,4.15.95,4.16-4.19,5.01-5.43,1.85-.18-.45-.09-1.4-.16-1.4h-4.96c-.47,4.01,2.38,6.42,6.02,7.33h3.54Zm-55.24-23.04v22.17c0,.86,3.8.44,4.6.52v-17.63s.52-.7.71-.35l5.54,18,2.91-.06,5.08-17.86c.97-1.28.98.22.98.97v16.93c.8-.09,4.6.33,4.6-.52v-22.17h-7.08l-5.13,15.71-5.13-15.71h-7.08Zm-149.07,0v22.7h4.25v-17.63c0-.21.73-.67,1.06-.52l4.99,17.6c.38.77,2.62.75,3.17.39l5.47-18.34c.62.47.82.77.91,1.55.62,5.41-.77,11.49-.37,16.95h4.6v-22.7h-7.08c-.69,1.58-3.95,15.73-4.78,15.72-.64,0-.7-.38-.91-.85-1.79-4.12-2.4-9.83-4.2-14.02-.14-.32-.24-.64-.55-.85h-6.55Zm56.65,0v22.7c4.57-.28,13.53,1.29,15.84-3.76,1.17-2.56,1.02-5.74-1.5-7.42-.74-.49-1.71-.49-2.31-1.22,5.09-1.87,3.93-9.45-1.24-10.3-3.11-.51-7.53.38-10.8,0Zm10.62,6.14c.23,2.23-1.57,2.74-3.4,2.89-4.09.33-2.25-1.81-2.62-4.85,1.88.16,5.73-.84,6.02,1.95Zm-.61,11.93c-.86.25-5.4.89-5.4-.09v-5.06c1.56.19,3.67-.27,5.13,0,2.55.46,2.78,4.44.27,5.15Zm-275.57-18.07v22.7h4.96v-9.78h8.85v9.78h4.96v-22.7h-4.96v8.73h-8.85v-8.73h-4.96Zm105.16,0v22.7h4.96v-9.78h8.85v9.78h4.96v-22.7h-4.96v8.73h-8.85v-8.73h-4.96Zm338.86,14.84c.76-.71,1.82-.63,2.79-1.08,4.32-2.01,4.26-9.41.75-12.19-.64-.51-2.67-1.56-3.37-1.56h-10.8v22.7h4.6v-7.68l1.34.08c.69.94,5.08,7.61,5.56,7.61h5.13l-6.01-7.86Zm1.14-5.15c-1.13,2.63-7.17,2.64-7.17,1.66v-7.16c3.73-.73,9.24.66,7.17,5.5Zm-393.11,5.15c.76-.71,1.82-.63,2.79-1.08,4.32-2.01,4.26-9.41.75-12.19-.64-.51-2.67-1.56-3.37-1.56h-10.8v22.7h4.6v-7.68l1.34.08c.69.94,5.08,7.61,5.56,7.61h5.13l-6.01-7.86Zm1.14-5.15c-1.13,2.63-7.17,2.64-7.17,1.66v-7.16c3.73-.73,9.24.66,7.17,5.5Zm134.82,13.01l1.28-3.51,9.32.05c.27,1.16.47,2.56,1.27,3.46h5.13l-9.07-22.72-4.35.06-8.89,22.66h5.31Zm5.49-16.42c.29-.09.69-.09.92.21,1.12,1.5,1.54,6.97,2.8,8.87h-6.73c.71-1.07,2.5-8.92,3.01-9.08Zm290-5.93c-.62-.74-2.91-.17-3.91-.37l-9.37,22.72h5.31c.17-.9.76-3.42,1.58-3.51,1.03-.12,7.82-.15,8.47.07.69.23,1.19,2.65,1.29,3.45h5.31l-8.67-22.35Zm-2.95,6.53l1.17-.59,2.66,9.08h-6.37l2.55-8.49Zm-242.26-6.87v22.17l.53.52h11.86v-4.19h-7.44v-5.24h7.08v-4.19h-7.08v-4.89h7.44v-4.19h-12.39Zm48.16,0v22.7h11.86c.84,0,.46-3.44.53-4.19h-7.44v-5.24h7.08v-4.19h-7.08v-4.89h7.44v-4.19h-12.39Zm101.27,0v22.7h11.86c.84,0,.46-3.44.53-4.19h-7.26c-.91,0-.41-4.38-.53-5.24h7.44v-4.19h-6.9c-.89,0-.43-4.07-.53-4.89h7.26c.84,0,.46-3.44.53-4.19h-12.39Zm66.92,0v22.7h12.04v-4.19h-6.9c-.91,0-.41-4.38-.53-5.24h6.9c.84,0,.46-3.44.53-4.19h-6.9c-.89,0-.43-4.07-.53-4.89h7.44v-4.19h-12.04Zm-391.97,0v22.7h12.04v-4.19h-6.9c-.91,0-.41-4.38-.53-5.24h6.9c.84,0,.46-3.44.53-4.19h-6.9c-.89,0-.43-4.07-.53-4.89h7.44v-4.19h-12.04Zm-38.24,0v22.7h12.04v-4.19h-6.9c-.91,0-.41-4.38-.53-5.24h6.9c.84,0,.46-3.44.53-4.19h-6.9c-.89,0-.43-4.07-.53-4.89h7.44v-4.19h-12.04Zm105.16,0v22.7h12.04v-4.19h-6.9c-.91,0-.41-4.38-.53-5.24h7.08v-4.19h-6.55c-.89,0-.43-4.07-.53-4.89h7.44v-4.19h-12.04Zm407.55,0l6.73,14.14v8.55h4.96v-8.55l6.73-14.14h-5.31l-3.54,10.13c-.42-.04-.61-.47-.78-.8-.65-1.26-3.03-9.15-3.65-9.32h-5.13Zm-450.04,0v4.19s4.6,0,4.6,0v18.51h4.96v-18.51h4.96v-4.19h-14.52Zm433.4,0v4.19h4.96v18.51h4.96v-18.51h4.6s0-4.19,0-4.19h-14.52Zm-24.08,0v22.7h12.04v-4.19h-6.55l-.53-.52v-17.98h-4.96Zm15.58,0v22.7h4.96v-22.7h-4.96Z"/>
  </g>
</svg>